<svg width="40" height="40" viewBox="0 0 40 40" fill="none" xmlns="http://www.w3.org/2000/svg">
<g clip-path="url(#clip0_27_70)">
<path d="M38.3334 4.99997C36.7374 6.12577 34.9703 6.98682 33.1001 7.54998C32.0963 6.39583 30.7623 5.57779 29.2785 5.20652C27.7946 4.83524 26.2326 4.92863 24.8035 5.47406C23.3745 6.01949 22.1475 6.99064 21.2884 8.25617C20.4293 9.5217 19.9796 11.0205 20.0001 12.55V14.2166C17.0711 14.2926 14.1689 13.643 11.5518 12.3257C8.93465 11.0084 6.68394 9.06437 5.00008 6.66664C5.00008 6.66664 -1.66658 21.6666 13.3334 28.3333C9.90096 30.6633 5.81201 31.8315 1.66675 31.6666C16.6667 40 35.0001 31.6666 35.0001 12.5C34.9985 12.0357 34.9539 11.5726 34.8667 11.1166C36.5678 9.43913 37.7681 7.32116 38.3334 4.99997Z" stroke="#FFF4EB" stroke-width="4" stroke-linecap="round" stroke-linejoin="round"/>
</g>
<defs>
<clipPath id="clip0_27_70">
<rect width="40" height="40" fill="white"/>
</clipPath>
</defs>
</svg>
